REM DIRINDEX 1\2\6,1\2\7,1\2\8,1\3\9,1\3\10,1\3\11,1\4\12,1\4\13,1\4\14,1\5\15,1\5\16,1\5\17,1\5\18
REM DIRNAME folder01,folder02,folder03,folder04,folder05,folder06,folder07,folder08,folder09,folder10,folder11,folder12,folder13,folder14,folder15,folder16,folder17,folder18
TITLE ""
FILE "2Q_t_0001-0017.mp3" MP3
  TRACK 01 AUDIO
    TITLE "12:cjc019_2056"
    INDEX 01 00:00:00
  TRACK 02 AUDIO
    TITLE "0:"
    INDEX 01 00:06:61
  TRACK 03 AUDIO
    TITLE "13:cjc019_2057"
    INDEX 01 00:07:72
  TRACK 04 AUDIO
    TITLE "0:"
    INDEX 01 00:08:72
  TRACK 05 AUDIO
    TITLE "14:cjc019_2058"
    INDEX 01 00:09:57
  TRACK 06 AUDIO
    TITLE "0:"
    INDEX 01 00:14:64
  TRACK 07 AUDIO
    TITLE "13:cjc019_2059"
    INDEX 01 00:15:42
  TRACK 08 AUDIO
    TITLE "0:"
    INDEX 01 00:16:44
  TRACK 09 AUDIO
    TITLE "14:cjc019_2060"
    INDEX 01 00:17:27
  TRACK 10 AUDIO
    TITLE "0:"
    INDEX 01 00:18:52
  TRACK 11 AUDIO
    TITLE "13:cjc019_2061"
    INDEX 01 00:19:26
  TRACK 12 AUDIO
    TITLE "0:"
    INDEX 01 00:20:37
  TRACK 13 AUDIO
    TITLE "14:cjc019_2062"
    INDEX 01 00:21:19
  TRACK 14 AUDIO
    TITLE "0:"
    INDEX 01 00:24:41
  TRACK 15 AUDIO
    TITLE "13:cjc019_2063"
    INDEX 01 00:25:17
  TRACK 16 AUDIO
    TITLE "0:"
    INDEX 01 00:26:28
  TRACK 17 AUDIO
    TITLE "14:cjc019_2064"
    INDEX 01 00:27:04
  TRACK 18 AUDIO
    TITLE "0:"
    INDEX 01 00:29:38
  TRACK 19 AUDIO
    TITLE "13:cjc019_2065"
    INDEX 01 00:30:16
  TRACK 20 AUDIO
    TITLE "0:"
    INDEX 01 00:31:24
  TRACK 21 AUDIO
    TITLE "14:cjc019_2066"
    INDEX 01 00:31:73
  TRACK 22 AUDIO
    TITLE "0:"
    INDEX 01 00:33:34
  TRACK 23 AUDIO
    TITLE "13:cjc019_2067"
    INDEX 01 00:34:12
  TRACK 24 AUDIO
    TITLE "0:"
    INDEX 01 00:35:17
  TRACK 25 AUDIO
    TITLE "14:cjc019_2068"
    INDEX 01 00:35:68
  TRACK 26 AUDIO
    TITLE "0:"
    INDEX 01 00:38:35
  TRACK 27 AUDIO
    TITLE "13:cjc019_2069"
    INDEX 01 00:39:11
  TRACK 28 AUDIO
    TITLE "0:"
    INDEX 01 00:40:19
  TRACK 29 AUDIO
    TITLE "14:cjc019_2070"
    INDEX 01 00:41:06
  TRACK 30 AUDIO
    TITLE "0:"
    INDEX 01 00:42:57
  TRACK 31 AUDIO
    TITLE "13:cjc019_2071"
    INDEX 01 00:43:35
  TRACK 32 AUDIO
    TITLE "0:"
    INDEX 01 00:44:50
  TRACK 33 AUDIO
    TITLE "14:cjc019_2072"
    INDEX 01 00:45:30
  TRACK 34 AUDIO
    TITLE "0:"
    INDEX 01 00:47:32
  TRACK 35 AUDIO
    TITLE "13:cjc019_2073"
    INDEX 01 00:48:08
  TRACK 36 AUDIO
    TITLE "0:"
    INDEX 01 00:49:16
  TRACK 37 AUDIO
    TITLE "14:cjc019_2074"
    INDEX 01 00:49:69
  TRACK 38 AUDIO
    TITLE "0:"
    INDEX 01 00:53:13
  TRACK 39 AUDIO
    TITLE "13:cjc019_2075"
    INDEX 01 00:53:62
  TRACK 40 AUDIO
    TITLE "0:"
    INDEX 01 00:54:60
  TRACK 41 AUDIO
    TITLE "14:cjc019_2076"
    INDEX 01 00:55:38
  TRACK 42 AUDIO
    TITLE "0:"
    INDEX 01 00:56:71
  TRACK 43 AUDIO
    TITLE "13:cjc019_2077"
    INDEX 01 00:57:46
  TRACK 44 AUDIO
    TITLE "0:"
    INDEX 01 00:58:62
  TRACK 45 AUDIO
    TITLE "14:cjc019_2078"
    INDEX 01 00:59:39
  TRACK 46 AUDIO
    TITLE "0:"
    INDEX 01 01:02:65
  TRACK 47 AUDIO
    TITLE "13:cjc019_2079"
    INDEX 01 01:03:41
  TRACK 48 AUDIO
    TITLE "0:"
    INDEX 01 01:04:41
  TRACK 49 AUDIO
    TITLE "14:cjc019_2080"
    INDEX 01 01:05:17
  TRACK 50 AUDIO
    TITLE "0:"
    INDEX 01 01:08:21
  TRACK 51 AUDIO
    TITLE "13:cjc019_2081"
    INDEX 01 01:08:72
  TRACK 52 AUDIO
    TITLE "0:"
    INDEX 01 01:10:04
  TRACK 53 AUDIO
    TITLE "14:cjc019_2082"
    INDEX 01 01:10:57
  TRACK 54 AUDIO
    TITLE "0:"
    INDEX 01 01:13:06
  TRACK 55 AUDIO
    TITLE "13:cjc019_2083"
    INDEX 01 01:13:59
  TRACK 56 AUDIO
    TITLE "0:"
    INDEX 01 01:14:72
  TRACK 57 AUDIO
    TITLE "14:cjc019_2084"
    INDEX 01 01:15:54
  TRACK 58 AUDIO
    TITLE "0:"
    INDEX 01 01:17:12
  TRACK 59 AUDIO
    TITLE "13:cjc019_2085"
    INDEX 01 01:17:65
  TRACK 60 AUDIO
    TITLE "0:"
    INDEX 01 01:19:13
  TRACK 61 AUDIO
    TITLE "14:cjc019_2086"
    INDEX 01 01:19:66
  TRACK 62 AUDIO
    TITLE "0:"
    INDEX 01 01:22:58
  TRACK 63 AUDIO
    TITLE "13:cjc019_2087"
    INDEX 01 01:23:32
  TRACK 64 AUDIO
    TITLE "0:"
    INDEX 01 01:24:34
  TRACK 65 AUDIO
    TITLE "14:cjc019_2088"
    INDEX 01 01:25:11
  TRACK 66 AUDIO
    TITLE "0:"
    INDEX 01 01:28:24
  TRACK 67 AUDIO
    TITLE "13:cjc019_2089"
    INDEX 01 01:29:01
  TRACK 68 AUDIO
    TITLE "0:"
    INDEX 01 01:30:03
  TRACK 69 AUDIO
    TITLE "14:cjc019_2090"
    INDEX 01 01:30:58
  TRACK 70 AUDIO
    TITLE "0:"
    INDEX 01 01:34:65
